<?xml version="1.0"?>
<svg xmlns="http://www.w3.org/2000/svg" height="512px" viewBox="0 -60 496 496" width="512px" class=""><g transform="matrix(0.913517, 0, 0, 0.913517, 21.4477, 16.2587)"><path d="m471.703125 275.464844c.097656-1.328125.296875-2.625.296875-3.96875 0-30.871094-25.128906-56-56-56v-4.6875l43.3125-43.3125h12.6875c13.230469 0 24-10.769532 24-24 0-13.230469-10.769531-24-24-24 0-13.230469-10.769531-24-24-24s-24 10.769531-24 24v12.6875l-16.761719 16.761718v-24.800781c0-15.800781-12.847656-28.648437-28.644531-28.648437-3.089844 0-6.136719.496094-9.058594 1.472656-7.0625 2.351562-14.199218 4.414062-21.390625 6.199219l31.167969-31.167969h12.6875c13.230469 0 24-10.769531 24-24s-10.769531-24-24-24c0-13.230469-10.769531-24-24-24s-24 10.769531-24 24v12.6875l-43.3125 43.3125h-17.609375c-31.414063 0-61.582031 11.289062-85.382813 31.679688-27.726562.929687-54.160156 9.90625-76.695312 26.296874-8.664062 6.296876-16.457031 13.542969-23.328125 21.519532h-29.671875c-11.03125 0-20 8.96875-20 20 0 2.199218-1.800781 4-4 4-11.03125 0-20 8.96875-20 20 0 2.199218-1.800781 4-4 4-11.03125 0-20 8.96875-20 20v12.582031c0 7.609375 4.230469 14.472656 11.070312 17.898437l2.714844 1.34375c1.34375.679688 2.214844 2.085938 2.214844 3.589844v4.585938c0 3.640625 1.046875 7.007812 2.753906 9.945312-12.875 4.910156-18.753906 10.628906-18.753906 18.054688 0 9.40625 8.128906 20.105468 65.550781 28.886718 16.394531 31.554688 48.464844 51.113282 84.113281 51.113282h196.671876c35.648437 0 67.71875-19.558594 84.113281-51.113282 57.421875-8.78125 65.550781-19.480468 65.550781-28.886718 0-10.359375-12.023438-16.175782-24.296875-20.03125zm-15.703125-3.96875c0 15.648437-9.128906 29.769531-23.296875 36.296875-7.03125 1.128906-14.863281 2.214843-23.304687 3.253906l.015624-.09375c-19.359374-3.199219-33.414062-19.792969-33.414062-39.457031 0-22.054688 17.945312-40 40-40s40 17.945312 40 40zm-364.183594 40.175781c-.726562-.609375-1.488281-1.160156-2.167968-1.839844-6.214844-6.222656-9.648438-14.503906-9.648438-23.304687 0-10.230469 6.753906-18.824219 16-21.816406v22.785156h16v-39.03125c0-8.679688 3.519531-17.167969 9.65625-23.3125l38.34375-38.34375v2.75c0 19.753906-7.6875 38.3125-21.65625 52.28125l-2.34375 2.34375v3.3125c0 19.3125 13.769531 35.472656 32 39.191406v16.808594h16v-16h16v16h16v-16h16v16h16v-11.550782c9.488281 5.535157 15.953125 15.695313 15.992188 27.445313-5.289063.050781-10.542969.105469-15.992188.105469-63.96875 0-116.945312-3.273438-156.183594-7.824219zm201.296875 7.257813c-5.714843-3.433594-10.769531-7.738282-15.058593-12.851563-2.09375-7.191406-5.847657-13.664063-10.789063-19.039063-2.136719-6.230468-3.265625-12.742187-3.265625-19.421874 0-15.992188 6.222656-31.03125 17.535156-42.34375 21.785156-21.785157 50.738282-33.777344 81.542969-33.777344h17.609375l19.3125 19.3125v7.046875c-23.097656 6.90625-40 28.328125-40 53.640625 0 17 7.519531 32.34375 19.65625 42.664062-24.902344 2.222656-53.855469 3.9375-86.542969 4.769532zm146.886719-180.121094v-19.3125c0-4.417969 3.585938-8 8-8s8 3.582031 8 8v16h16c4.414062 0 8 3.582031 8 8 0 4.414062-3.585938 8-8 8h-19.3125l-44.6875 44.6875-12.6875-12.6875zm-80-95.496094v-19.3125c0-4.414062 3.585938-8 8-8s8 3.585938 8 8v16h16c4.414062 0 8 3.585938 8 8s-3.585938 8-8 8h-19.3125l-44.6875 44.679688-12.6875-12.6875zm-59.3125 52.679688 13.441406 13.441406c-11.296875 1.375-22.6875 2.0625-34.128906 2.0625h-54.496094c17.390625-10.039063 37.175782-15.503906 57.574219-15.503906zm-170.28125 54.917968c21.066406-15.316406 45.960938-23.414062 72-23.414062h77.59375c32.199219 0 64.03125-5.167969 94.609375-15.351563 1.285156-.433593 2.621094-.648437 3.984375-.648437 6.972656 0 12.644531 5.671875 12.644531 12.648437v40.800781l-10.550781 10.550782h-17.609375c-35.078125 0-68.046875 13.65625-92.847656 38.464844-14.34375 14.328124-22.230469 33.382812-22.230469 53.65625 0 2.277343.105469 4.542968.304688 6.789062-5.105469-1.847656-10.578126-2.910156-16.304688-2.910156h-56c-12.207031 0-22.320312-9.167969-23.816406-20.976563 15.382812-16.65625 23.816406-38.167969 23.816406-60.960937v-41.375l-65.65625 65.65625c-9.191406 9.191406-14.265625 21.382812-14.328125 34.367187-5.9375 1.082031-11.34375 3.527344-16.015625 6.976563v-5.28125c0-39.03125 18.839844-76.039063 50.40625-98.992188zm-114.40625 89.167969v-12.582031c0-2.199219 1.800781-4 4-4 11.03125 0 20-8.96875 20-20 0-2.199219 1.800781-4 4-4 11.03125 0 20-8.96875 20-20 0-2.199219 1.800781-4 4-4h17.816406c-14.007812 21.984375-21.816406 47.761718-21.816406 74.40625v37.59375h.046875c.144531 7.488281 1.960937 14.695312 5.28125 21.199218-2.558594-.382812-5.167969-.757812-7.558594-1.152343l-3.992187-19.96875c-1.875-9.316407-10.121094-16.078125-19.609375-16.078125h-2.167969c-2.199219 0-4-1.800782-4-4v-4.585938c0-7.605468-4.230469-14.46875-11.070312-17.894531l-2.714844-1.34375c-1.34375-.679687-2.214844-2.085937-2.214844-3.59375zm23.679688 47.746094c1.199218.503906 2.136718 1.550781 2.410156 2.886719l2.726562 13.65625c-13.886718-2.941407-23.28125-5.976563-27.367187-8.773438 2.613281-1.640625 8.742187-4.503906 22.230469-7.769531zm306.65625 71.671875h-196.671876c-25.585937 0-48.878906-12.183594-63.566406-32.375 44.535156 5.398437 101.46875 8.375 161.902344 8.375 5.375 0 10.679688-.054688 16-.105469v.105469c.375 0 .726562-.089844 1.097656-.113282 54.039063-.503906 104.503906-3.382812 144.796875-8.261718-14.679687 20.191406-37.972656 32.375-63.558593 32.375zm116.878906-57.96875c2.066406-3.246094 3.714844-6.742188 5.074218-10.359375 5.511719 1.832031 8.589844 3.382812 10.261719 4.441406-2.773437 1.894531-7.964843 3.902344-15.335937 5.917969zm0 0" data-original="#000000" class="active-path" data-old_color="#F296B4" fill="#F29DB9"/><path d="m304 223.496094h16v16h-16zm0 0" data-original="#000000" class="active-path" data-old_color="#F296B4" fill="#F29DB9"/><path d="m280 255.496094h16v16h-16zm0 0" data-original="#000000" class="active-path" data-old_color="#F296B4" fill="#F29DB9"/><path d="m296 287.496094h16v16h-16zm0 0" data-original="#000000" class="active-path" data-old_color="#F296B4" fill="#F29DB9"/></g> </svg>
