<?xml version="1.0"?>
<svg xmlns="http://www.w3.org/2000/svg" xmlns:xlink="http://www.w3.org/1999/xlink" version="1.1" id="Capa_1" x="0px" y="0px" viewBox="0 0 512 512" style="enable-background:new 0 0 512 512;" xml:space="preserve" width="512px" height="512px" class=""><g><path style="fill:#ED5565" d="M282.786,121.576c7.395,7.395,7.395,19.392,0,26.785L256,175.158l-26.785-26.797  c-7.405-7.394-7.405-19.391,0-26.785c7.395-7.395,19.392-7.395,26.785,0C263.395,114.181,275.392,114.181,282.786,121.576z" data-original="#ED5565" class=""/><path style="fill:#DADDE1;" d="M482.358,412.305h21.558c0,17.872-14.465,32.337-32.337,32.337H40.421  c-17.871,0-32.337-14.465-32.337-32.337h21.558H482.358z" data-original="#DADDE1" class=""/><path style="fill:#CCD1D9;" d="M482.358,412.305h-10.782c0,17.872-14.465,32.337-32.337,32.337h32.34  c17.872,0,32.337-14.465,32.337-32.337H482.358z" data-original="#CCD1D9" class=""/><path style="fill:#EF5285" d="M482.358,412.305H29.642c0-125.014,101.344-226.358,226.358-226.358  C381.015,185.947,482.358,287.291,482.358,412.305z" data-original="#FFCE54" class="" data-old_color="#ef5285"/><path style="fill:#EF5285" d="M256,185.947c-5.438,0-10.827,0.204-16.171,0.581c117.467,8.293,210.188,106.201,210.188,225.777  h32.34C482.358,287.291,381.015,185.947,256,185.947z" data-original="#F6BB42" class="" data-old_color="#ef5285"/><path d="M503.916,404.219h-13.619c-0.736-21.668-4.422-42.998-10.989-63.506c-7.146-22.313-17.602-43.385-31.086-62.658  c-13.301-19.015-29.309-35.926-47.579-50.262c-18.432-14.477-38.825-26.053-60.609-34.418  c-24.147-9.276-49.495-14.414-75.473-15.342l23.946-23.949c10.537-10.538,10.537-27.685-0.001-38.224  c-5.103-5.102-11.889-7.913-19.108-7.913c-4.775,0-9.36,1.23-13.395,3.538c-4.035-2.308-8.621-3.538-13.395-3.538  c-7.217,0-14.004,2.81-19.109,7.912c-5.106,5.105-7.919,11.893-7.919,19.114c0,7.221,2.813,14.008,7.918,19.112l23.949,23.949  c-16.684,0.6-33.227,2.942-49.296,7.021c-18.26,4.635-35.947,11.49-52.579,20.394c-3.934,2.102-5.422,7.006-3.32,10.941  c1.412,2.641,4.15,4.268,7.136,4.268c1.326,0,2.641-0.323,3.816-0.948c15.489-8.29,31.949-14.671,48.936-18.982  c17.086-4.338,34.779-6.572,52.587-6.684c0.416,0.066,0.84,0.11,1.275,0.11c0.447,0,0.882-0.045,1.308-0.116  c26.512,0.165,52.386,5.012,76.925,14.428c20.285,7.794,39.267,18.573,56.438,32.046c16.999,13.355,31.906,29.103,44.292,46.802  c12.557,17.936,22.301,37.564,28.951,58.336c6.061,18.924,9.481,38.585,10.209,58.569H37.891  c0.547-14.987,2.598-29.853,6.162-44.298c4.075-16.557,10.122-32.639,17.969-47.795c7.707-14.896,17.16-28.919,28.101-41.703  c10.887-12.719,23.25-24.199,36.735-34.116c3.59-2.641,4.365-7.706,1.725-11.296c-1.51-2.069-3.956-3.299-6.51-3.299  c-1.736,0-3.396,0.539-4.786,1.574c-14.476,10.639-27.745,22.96-39.441,36.617c-11.749,13.721-21.914,28.801-30.191,44.797  c-8.43,16.287-14.919,33.565-19.305,51.35c-3.867,15.706-6.085,31.875-6.64,48.168H8.084c-4.465,0-8.084,3.619-8.084,8.084  c0,22.288,18.133,40.421,40.421,40.421h431.158c22.288,0,40.421-18.133,40.421-40.421C512,407.838,508.381,404.219,503.916,404.219z   M231.747,134.971c0-2.901,1.13-5.627,3.181-7.678c2.051-2.05,4.778-3.179,7.679-3.179c2.902,0,5.63,1.13,7.682,3.18  c3.158,3.155,8.274,3.155,11.429-0.001c2.052-2.051,4.778-3.179,7.68-3.179c2.901,0,5.627,1.128,7.676,3.177  c4.234,4.235,4.234,11.125,0,15.36l-21.07,21.073l-21.074-21.075C232.876,140.599,231.747,137.872,231.747,134.971z   M471.579,436.555H40.421c-10.539,0-19.525-6.759-22.862-16.168H29.58c0.021,0,0.041,0.003,0.062,0.003s0.041-0.003,0.062-0.003  h452.592c0.021,0,0.041,0.003,0.062,0.003c0.021,0,0.041-0.003,0.062-0.003h12.021C491.103,429.797,482.118,436.555,471.579,436.555  z" data-original="#000000" class="active-path" style="fill:#EF5285" data-old_color="#ef5285"/><path d="M33.953,213.421c-2.679,3.572-1.955,8.639,1.617,11.318c1.454,1.09,3.156,1.618,4.844,1.617  c2.458,0,4.886-1.116,6.474-3.234c0.368-0.491,9.061-12.199,13.458-28.324c6.096-22.354,1.183-42.304-14.21-57.697  c-26.915-26.915-0.38-63.362,0.762-64.9c2.666-3.571,1.939-8.627-1.628-11.303c-3.572-2.678-8.639-1.955-11.318,1.617  c-0.368,0.491-9.06,12.199-13.458,28.323c-6.096,22.354-1.183,42.304,14.209,57.697C61.619,175.449,35.084,211.898,33.953,213.421z" data-original="#000000" class="active-path" style="fill:#EF5285" data-old_color="#ef5285"/><path d="M127.198,137.287c-1.945,6.28-6.181,10.776-6.328,10.931c-3.107,3.18-3.065,8.276,0.102,11.403  c1.576,1.556,3.628,2.331,5.679,2.331c2.086,0,4.172-0.803,5.753-2.404c0.688-0.697,6.811-7.084,10.007-16.755  c4.484-13.566,0.917-27.074-10.044-38.034c-6.567-6.566-8.618-13.415-6.27-20.936c1.959-6.278,6.261-10.735,6.27-10.745  c3.157-3.158,3.157-8.276,0-11.434c-3.157-3.156-8.276-3.156-11.433,0c-0.69,0.69-6.832,7.017-10.037,16.634  c-4.494,13.483-0.929,26.948,10.037,37.915C127.51,122.767,129.558,129.667,127.198,137.287z" data-original="#000000" class="active-path" style="fill:#EF5285" data-old_color="#ef5285"/><path d="M451.654,194.798c4.397,16.125,13.09,27.834,13.458,28.324c1.586,2.116,4.008,3.229,6.463,3.229  c1.683,0,3.381-0.524,4.834-1.61c3.573-2.666,4.307-7.728,1.648-11.306c-1.142-1.538-27.677-37.986-0.761-64.901  c15.392-15.393,20.305-35.343,14.208-57.697c-4.397-16.124-13.09-27.833-13.458-28.323c-2.674-3.567-7.725-4.289-11.298-1.62  c-3.572,2.666-4.306,7.728-1.647,11.306c1.142,1.538,27.677,37.985,0.761,64.9C450.471,152.493,445.557,172.444,451.654,194.798z" data-original="#000000" class="active-path" style="fill:#EF5285" data-old_color="#ef5285"/><path d="M369.587,142.793c3.196,9.671,9.32,16.058,10.007,16.755c1.577,1.597,3.651,2.395,5.726,2.395  c2.038,0,4.079-0.768,5.655-2.306c3.182-3.104,3.243-8.214,0.157-11.415c-0.043-0.045-4.362-4.575-6.332-10.935  c-2.361-7.62-0.312-14.52,6.262-21.094c10.967-10.966,14.533-24.432,10.038-37.915c-3.206-9.617-9.347-15.943-10.037-16.634  c-3.143-3.143-8.217-3.142-11.381-0.016c-3.162,3.124-3.19,8.234-0.085,11.416c0.043,0.044,4.344,4.501,6.304,10.779  c2.346,7.521,0.296,14.37-6.27,20.936C368.671,115.72,365.103,129.227,369.587,142.793z" data-original="#000000" class="active-path" style="fill:#EF5285" data-old_color="#ef5285"/></g> </svg>
